<svg width="38" height="33" viewBox="0 0 38 33" fill="none" xmlns="http://www.w3.org/2000/svg">
<path d="M11.3333 26.9149V18.8168H10.0526V17.5879H12.8727V26.9149H11.3333ZM14.7551 26.9149L18.4161 22.5425C19.1577 21.6542 19.5286 20.878 19.5286 20.214C19.5286 19.731 19.3776 19.3343 19.0758 19.0238C18.774 18.7134 18.3773 18.5581 17.8857 18.5581C17.42 18.5581 17.0405 18.7134 16.7473 19.0238C16.4627 19.3257 16.3204 19.7224 16.3204 20.214L16.3463 20.5503H14.781L14.7551 20.1105C14.7551 19.2998 15.0483 18.6314 15.6348 18.1054C16.2298 17.5707 16.9715 17.3033 17.8598 17.3033C18.8257 17.3033 19.6148 17.575 20.2271 18.1183C20.8394 18.6616 21.1456 19.3731 21.1456 20.2528C21.1456 21.2532 20.7187 22.2191 19.8649 23.1505L17.5493 25.686H21.3138V26.9149H14.7551ZM22.6255 26.9149L26.2864 22.5425C27.0281 21.6542 27.3989 20.878 27.3989 20.214C27.3989 19.731 27.248 19.3343 26.9461 19.0238C26.6443 18.7134 26.2476 18.5581 25.756 18.5581C25.2903 18.5581 24.9109 18.7134 24.6176 19.0238C24.333 19.3257 24.1907 19.7224 24.1907 20.214L24.2166 20.5503H22.6513L22.6255 20.1105C22.6255 19.2998 22.9187 18.6314 23.5051 18.1054C24.1002 17.5707 24.8419 17.3033 25.7301 17.3033C26.696 17.3033 27.4852 17.575 28.0975 18.1183C28.7098 18.6616 29.0159 19.3731 29.0159 20.2528C29.0159 21.2532 28.589 22.2191 27.7353 23.1505L25.4197 25.686H29.1841V26.9149H22.6255Z" fill="white"/>
<path d="M28.2979 15.0426C28.2979 7.8981 24.1351 2.10638 19 2.10638C13.8649 2.10638 9.70215 7.8981 9.70215 15.0426" stroke="white" stroke-width="2.42553"/>
<rect x="1.25" y="12.25" width="35.5" height="19.3298" stroke="white" stroke-width="2.5"/>
</svg>
