<svg width="180" height="179" viewBox="0 0 180 179" fill="none" xmlns="http://www.w3.org/2000/svg">
<rect width="180" height="179" fill="#222222"/>
<path d="M75.2955 80.8409C75.1136 79.0076 74.3333 77.5833 72.9545 76.5682C71.5758 75.553 69.7045 75.0455 67.3409 75.0455C65.7348 75.0455 64.3788 75.2727 63.2727 75.7273C62.1667 76.1667 61.3182 76.7803 60.7273 77.5682C60.1515 78.3561 59.8636 79.25 59.8636 80.25C59.8333 81.0833 60.0076 81.8106 60.3864 82.4318C60.7803 83.053 61.3182 83.5909 62 84.0455C62.6818 84.4848 63.4697 84.8712 64.3636 85.2045C65.2576 85.5227 66.2121 85.7955 67.2273 86.0227L71.4091 87.0227C73.4394 87.4773 75.303 88.0833 77 88.8409C78.697 89.5985 80.1667 90.5303 81.4091 91.6364C82.6515 92.7424 83.6136 94.0455 84.2955 95.5455C84.9924 97.0455 85.3485 98.7652 85.3636 100.705C85.3485 103.553 84.6212 106.023 83.1818 108.114C81.7576 110.189 79.697 111.803 77 112.955C74.3182 114.091 71.0833 114.659 67.2955 114.659C63.5379 114.659 60.2652 114.083 57.4773 112.932C54.7045 111.78 52.5379 110.076 50.9773 107.818C49.4318 105.545 48.6212 102.735 48.5455 99.3864H58.0682C58.1742 100.947 58.6212 102.25 59.4091 103.295C60.2121 104.326 61.2803 105.106 62.6136 105.636C63.9621 106.152 65.4848 106.409 67.1818 106.409C68.8485 106.409 70.2955 106.167 71.5227 105.682C72.7652 105.197 73.7273 104.523 74.4091 103.659C75.0909 102.795 75.4318 101.803 75.4318 100.682C75.4318 99.6364 75.1212 98.7576 74.5 98.0455C73.8939 97.3333 73 96.7273 71.8182 96.2273C70.6515 95.7273 69.2197 95.2727 67.5227 94.8636L62.4545 93.5909C58.5303 92.6364 55.4318 91.1439 53.1591 89.1136C50.8864 87.0833 49.7576 84.3485 49.7727 80.9091C49.7576 78.0909 50.5076 75.6288 52.0227 73.5227C53.553 71.4167 55.6515 69.7727 58.3182 68.5909C60.9848 67.4091 64.0152 66.8182 67.4091 66.8182C70.8636 66.8182 73.8788 67.4091 76.4545 68.5909C79.0455 69.7727 81.0606 71.4167 82.5 73.5227C83.9394 75.6288 84.6818 78.0682 84.7273 80.8409H75.2955ZM89.2557 67.4545H100.278L110.892 87.5H111.347L121.96 67.4545H132.983L116.006 97.5455V114H106.233V97.5455L89.2557 67.4545Z" fill="white"/>
</svg>
