<svg width="112" height="25" viewBox="0 0 112 25" fill="none" xmlns="http://www.w3.org/2000/svg">
<path d="M0.592 0.927999H5.104L8.848 7.168C8.95467 7.33867 9.08267 7.584 9.232 7.904C9.38133 8.20267 9.488 8.448 9.552 8.64C9.63733 8.81067 9.712 9.056 9.776 9.376C9.84 9.696 9.904 10.0373 9.968 10.4C10.0107 10.0373 10.064 9.696 10.128 9.376C10.2133 9.056 10.3093 8.75733 10.416 8.48C10.4587 8.352 10.544 8.14933 10.672 7.872C10.8213 7.59467 10.9493 7.36 11.056 7.168L14.8 0.927999H19.344L11.92 12.896V24H8.016V12.896L0.592 0.927999ZM19.7623 24V0.927999H23.5383V9.344L23.5063 10.4C23.4423 10.9973 23.3249 11.68 23.1543 12.448C23.5169 11.68 23.8476 11.104 24.1463 10.72L24.8183 9.888L32.4663 0.927999H37.1383L27.3463 12.192L38.3543 24H33.2663L25.1063 14.848L23.5383 16.64V24H19.7623ZM38.7623 24V0.927999H42.5383V20.608H49.6423V24H38.7623ZM50.3893 21.856C50.3893 21.152 50.6346 20.5547 51.1253 20.064C51.6373 19.552 52.2453 19.296 52.9493 19.296C53.6533 19.296 54.2506 19.552 54.7413 20.064C55.2533 20.5547 55.5093 21.152 55.5093 21.856C55.5093 22.56 55.2533 23.168 54.7413 23.68C54.2506 24.1707 53.6533 24.416 52.9493 24.416C52.2453 24.416 51.6373 24.1707 51.1253 23.68C50.6346 23.168 50.3893 22.56 50.3893 21.856ZM68.7963 9.6V13.6C68.0709 12.5547 66.9616 12.032 65.4683 12.032C64.1669 12.032 63.0896 12.4693 62.2363 13.344C61.4043 14.1973 60.9883 15.3067 60.9883 16.672C60.9883 17.9947 61.3936 19.0933 62.2043 19.968C63.0149 20.8427 64.0389 21.28 65.2763 21.28C66.5776 21.28 67.7509 20.7893 68.7963 19.808V23.616C67.4096 24.192 66.1296 24.48 64.9563 24.48C62.6949 24.48 60.8176 23.7547 59.3243 22.304C57.8523 20.832 57.1163 18.9653 57.1163 16.704C57.1163 14.4213 57.8736 12.5013 59.3883 10.944C60.9029 9.38667 62.7909 8.608 65.0523 8.608C66.2469 8.608 67.4949 8.93867 68.7963 9.6ZM70.3663 16.64C70.3663 14.4 71.1236 12.512 72.6383 10.976C74.1743 9.41867 76.0729 8.64 78.3343 8.64C80.6169 8.64 82.5263 9.39733 84.0623 10.912C85.5983 12.4267 86.3663 14.3253 86.3663 16.608C86.3663 18.848 85.5983 20.736 84.0623 22.272C82.5263 23.808 80.6276 24.576 78.3663 24.576C76.1476 24.576 74.2596 23.808 72.7023 22.272C71.1449 20.736 70.3663 18.8587 70.3663 16.64ZM78.3663 12C77.1289 12 76.0836 12.448 75.2303 13.344C74.3769 14.24 73.9503 15.328 73.9503 16.608C73.9503 17.9093 74.3769 19.008 75.2303 19.904C76.0836 20.8 77.1396 21.248 78.3983 21.248C79.6569 21.248 80.7023 20.8107 81.5343 19.936C82.3663 19.0613 82.7823 17.952 82.7823 16.608C82.7823 15.3067 82.3556 14.2187 81.5023 13.344C80.6703 12.448 79.6249 12 78.3663 12ZM89.1998 24V9.184H92.7518V11.584C93.7758 9.792 95.2798 8.896 97.2638 8.896C98.3304 8.896 99.2371 9.152 99.9838 9.664C100.752 10.176 101.296 10.9227 101.616 11.904C102.768 9.83467 104.368 8.8 106.416 8.8C107.29 8.8 108.08 8.98133 108.784 9.344C109.488 9.70667 110.053 10.2293 110.48 10.912C110.778 11.3813 110.981 11.8827 111.088 12.416C111.194 12.928 111.248 13.632 111.248 14.528V24H107.696V16.16C107.696 15.2213 107.664 14.5813 107.6 14.24C107.536 13.8773 107.376 13.5147 107.12 13.152C106.629 12.4053 105.904 12.032 104.944 12.032C104.026 12.032 103.322 12.3307 102.832 12.928C102.341 13.5253 102.096 14.3787 102.096 15.488V24H98.4798V15.392C98.4798 14.3253 98.2451 13.5147 97.7758 12.96C97.3278 12.384 96.6664 12.096 95.7917 12.096C94.7038 12.096 93.8824 12.5333 93.3278 13.408C92.9864 14.0053 92.8158 15.0613 92.8158 16.576V24H89.1998Z" fill="white"/>
</svg>
