<svg width="38" height="33" viewBox="0 0 38 33" fill="none" xmlns="http://www.w3.org/2000/svg">
<path d="M11.3333 26.9148V18.8168H10.0526V17.5878H12.8727V26.9148H11.3333ZM14.7551 26.9148L18.4161 22.5424C19.1577 21.6541 19.5286 20.8779 19.5286 20.2139C19.5286 19.7309 19.3776 19.3342 19.0758 19.0237C18.774 18.7133 18.3773 18.558 17.8857 18.558C17.42 18.558 17.0405 18.7133 16.7473 19.0237C16.4627 19.3256 16.3204 19.7223 16.3204 20.2139L16.3463 20.5502H14.781L14.7551 20.1104C14.7551 19.2997 15.0483 18.6313 15.6348 18.1053C16.2298 17.5706 16.9715 17.3032 17.8598 17.3032C18.8257 17.3032 19.6148 17.5749 20.2271 18.1182C20.8394 18.6615 21.1456 19.373 21.1456 20.2527C21.1456 21.2531 20.7187 22.219 19.8649 23.1504L17.5493 25.6859H21.3138V26.9148H14.7551ZM22.6255 26.9148L26.2864 22.5424C27.0281 21.6541 27.3989 20.8779 27.3989 20.2139C27.3989 19.7309 27.248 19.3342 26.9461 19.0237C26.6443 18.7133 26.2476 18.558 25.756 18.558C25.2903 18.558 24.9109 18.7133 24.6176 19.0237C24.333 19.3256 24.1907 19.7223 24.1907 20.2139L24.2166 20.5502H22.6513L22.6255 20.1104C22.6255 19.2997 22.9187 18.6313 23.5051 18.1053C24.1002 17.5706 24.8419 17.3032 25.7301 17.3032C26.696 17.3032 27.4852 17.5749 28.0975 18.1182C28.7098 18.6615 29.0159 19.373 29.0159 20.2527C29.0159 21.2531 28.589 22.219 27.7353 23.1504L25.4197 25.6859H29.1841V26.9148H22.6255Z" fill="white"/>
<path d="M28.2979 15.0426C28.2979 7.89817 24.1351 2.10645 19 2.10645C13.8649 2.10645 9.70215 7.89817 9.70215 15.0426" stroke="white" strokeWidth="2.42553"/>
<rect x="1.25" y="12.25" width="35.5" height="19.3298" stroke="white" strokeWidth="2.5"/>
</svg>
